<svg xmlns="http://www.w3.org/2000/svg" width="1400" height="820" viewBox="0 0 1400 820">
<rect width="1400" height="820" fill="#131414"/>
<g fill="#e9ddc5" font-family="Georgia,serif"><text x="55" y="115" font-size="13" letter-spacing="4">SKILLS</text><g font-size="53"><text x="55" y="200">TOOLS.</text><text x="55" y="257">SYSTEMS.</text><text x="55" y="314">CURIOSITY.</text></g><text x="55" y="382" font-size="18">What I use. What I understand.</text><text x="55" y="410" font-size="18">What I’m exploring.</text><text x="75" y="575" font-size="25" font-style="italic">Same curiosity.</text><text x="98" y="610" font-size="25" font-style="italic">Different paths.</text></g>
<path d="m55 337 220-9m-202 321 23-40m-23 0 23 40" stroke="#df8a70" stroke-width="3"/>
<g fill="#e8dcc3"><path d="m370 75 299 4-4 647-292-3Z"/><path d="m687 82 300-8-5 609-292 5Z"/><path d="m1006 76 298 6-7 594-294 5Z"/><path d="m783 725 506-7 4 53-514 8Z"/></g>
<g font-family="Georgia,serif" fill="#282820"><g font-size="20" fill="#c86f50"><text x="396" y="115">01</text><text x="714" y="115">02</text><text x="1032" y="115">03</text></g><g font-size="33"><text x="396" y="155">TOOLS.</text><text x="714" y="155">SYSTEMS.</text><text x="1032" y="155">CURIOSITY.</text></g><g font-size="17"><text x="396" y="187">What I use to build.</text><text x="714" y="187">What I understand.</text><text x="1032" y="187">What I’m exploring.</text></g><g font-size="17"><text x="396" y="241">LANGUAGES</text><text x="406" y="278">C · C++ · JavaScript</text><text x="396" y="333">FRONTEND</text><text x="406" y="370">HTML · CSS · JavaScript</text><text x="396" y="425">BACKEND</text><text x="406" y="462">Node.js · Express.js</text><text x="396" y="517">DATA</text><text x="406" y="554">PostgreSQL · SQL</text><text x="396" y="609">DEVELOPMENT</text><text x="406" y="646">Git · GitHub · Linux</text><text x="714" y="253">◇  Data Structures</text><text x="714" y="308">◇  Object-oriented Programming</text><text x="714" y="363">◇  Database Management</text><text x="714" y="418">◇  Operating Systems</text><text x="714" y="473">◇  Computer Networks</text><text x="714" y="528">◇  Cybersecurity Fundamentals</text><text x="1032" y="253">◇  DSA &amp; Problem Solving</text><text x="1032" y="316">◇  Backend &amp; Systems</text><text x="1032" y="379">◇  Networking &amp; Security</text><text x="1032" y="442">◇  Cybersecurity</text></g><g font-style="italic" font-size="22"><text x="723" y="598">Beyond syntax.</text><text x="723" y="629">Understand what’s underneath.</text><text x="1050" y="558">Keep exploring.</text><text x="1065" y="593">Keep learning.</text></g><text x="817" y="752" font-size="18">GitHub  ↗    LeetCode  ↗    CodeChef  ↗    LinkedIn  ↗</text></g></svg>
